<svg xmlns="http://www.w3.org/2000/svg" width="512" height="512" viewBox="0 0 512 512"><mask id="a"><circle cx="256" cy="256" r="256" fill="#fff"/></mask><g mask="url(#a)"><path fill="#ffda44" d="M0 0h512v327l-19 76 19 78v31H0V185l21-76L0 31z"/><path fill="#eee" d="M0 31v117l512 296V327z"/><path fill="#333" d="M0 108v77l512 296v-77z"/><path fill="#d80027" d="M239 145v33h-39q1 13 15 14h-1a14 14 0 0 0 14 14 14 14 0 0 0 11 13v79a72 72 0 0 1-47-104 89 89 0 0 0 5 129h-19v11h-22v33h67v-11h66v11h67v-33h-22v-11h-19a89 89 0 0 0 5-129 72 72 0 0 1 8 34 72 72 0 0 1-55 70v-78a14 14 0 0 0 11-14 14 14 0 0 0 14-14h-1q13-1 15-14h-39v-33z"/></g></svg>