<svg xmlns="http://www.w3.org/2000/svg" width="512" height="512" viewBox="0 0 512 512"><mask id="a"><circle cx="256" cy="256" r="256" fill="#fff"/></mask><g mask="url(#a)"><path fill="#6da544" d="M0 0h512v512H0z"/><path fill="#ffda44" d="M123 75a48 48 0 0 0-48 48 48 48 0 0 0 48 48 48 48 0 0 0 48-48 48 48 0 0 0-48-48m270 48-7 14-16-4 7 15-13 10 16 4v16l13-10 13 10v-16l15-4-12-10 7-15-16 4zm-142 44a89 89 0 1 0 67 153 72 72 0 0 1-34 8 72 72 0 1 1 34-136 89 89 0 0 0-67-25m199 22-7 15-16-4 7 15-13 10 16 4v16l13-10 13 10v-16l16-4-13-10 7-15-16 4zm-122 23-7 14-16-4 7 15-13 10 16 4v16l13-10 12 10v-16l16-4-13-10 8-15-16 4zm81 55-5 17h-18l14 11-5 17 14-11 15 11-6-17 15-11h-18zm-16 100-7 15-16-4 7 15-13 10 16 4v16l13-10 13 10v-16l15-4-12-10 7-15-16 4z"/><path fill="#6da544" d="M82 98h81l-29 30-11 8-12-8z"/><path fill="#a2001d" d="M111 128v41l12 2 11-1v-42z"/></g></svg>