<svg xmlns="http://www.w3.org/2000/svg" width="512" height="512" viewBox="0 0 512 512"><mask id="a"><circle cx="256" cy="256" r="256" fill="#fff"/></mask><g mask="url(#a)"><path fill="#d80027" d="m0 345 256-32 256 32v167H0Z"/><path fill="#ffda44" d="m0 167 256-32 256 32v178H0Z"/><path fill="#6da544" d="M0 0h512v167H0z"/><circle cx="256" cy="256" r="123" fill="#0052b4"/><path fill="#ffda44" d="m256 161-17 53-26-37-18 13 28 39h-61l43 32-37 12 7 21 42-14-19 59 47-34v40h22v-40l47 35-19-60 42 14 7-21-38-12 44-32h-61l28-38-18-13-26 36z"/></g></svg>