<svg xmlns="http://www.w3.org/2000/svg" width="512" height="512" viewBox="0 0 512 512"><mask id="a"><circle cx="256" cy="256" r="256" fill="#fff"/></mask><g mask="url(#a)"><path fill="#eee" d="m0 167 256-32 256 32v178l-256 32L0 345Z"/><path fill="#a2001d" d="M0 0h512v167H0Z"/><path fill="#333" d="M0 345h512v167H0Z"/><path fill="#496e2d" d="m186.4 223.4-7.5 12.2-4.8 9 8.5 12.1h18.9q2.3 0 3.8 1a6 6 0 0 1 2.4 3.5q.8 2.4.8 6.7v5.5h-47.1v-30.5h-14.7v8.6H129v-8.6h-14.7V287q0 4.4-1.7 6.8a5 5 0 0 1-4.5 2.4l-2-.1h-2.8l-.2 12.2 5.2.3q6.2 0 10.8-2.8 4.8-2.7 7.3-7.7 2.6-5 2.6-11V264h17.7v21.8h76.5V268q0-5-1.4-9.3-1.5-4.3-4-7.6a17 17 0 0 0-6.8-5 23 23 0 0 0-9.5-1.7h-11.1l1.4-2.7 1.6-3a104 104 0 0 1 5.3-8.5zM236 226v59.7h14.6V226zm132 0v47.3h-15.2v-38.6h-14.6v38.6h-15.3v-30.5h-20.4q-7.2 0-12.3 2.6a17 17 0 0 0-7.7 7.3 25 25 0 0 0-2.6 12q0 7 2.6 11.7a16 16 0 0 0 7.7 7q5.1 2.4 12.3 2.3h80.2V226zm26.3 0v59.7H409V226zm-91.8 29.3h5.7v18h-5.7q-2.7 0-4.5-.5a4 4 0 0 1-2.6-2.3q-.8-2-.8-5.8 0-4.2 1-6.2a5 5 0 0 1 2.7-2.6q1.8-.6 4.2-.6m-155.8 39.4v11.2h14.7v-11.2z"/></g></svg>