<svg xmlns="http://www.w3.org/2000/svg" width="512" height="512" viewBox="0 0 512 512"><mask id="a"><circle cx="256" cy="256" r="256" fill="#fff"/></mask><g mask="url(#a)"><path fill="#eee" d="M256 0h256v64l-32 32 32 32v64l-32 32 32 32v64l-32 32 32 32v64l-256 32L0 448v-64l32-32-32-32v-64z"/><path fill="#d80027" d="M224 64h288v64H224Zm0 128h288v64H256ZM0 320h512v64H0Zm0 128h512v64H0Z"/><path fill="#0052b4" d="M0 0h256v256H0Z"/><path fill="#ffda44" d="M142 78a78 78 0 1 0 58 134 63 63 0 0 1-30 7 63 63 0 1 1 30-119 78 78 0 0 0-58-22m46 33-11 24-26-6 12 23-21 17 26 5v26l20-16 20 16v-26l26-5-21-17 12-23-26 6z"/></g></svg>