<svg xmlns="http://www.w3.org/2000/svg" width="512" height="512" viewBox="0 0 512 512"><mask id="a"><circle cx="256" cy="256" r="256" fill="#fff"/></mask><g mask="url(#a)"><path fill="#d80027" d="M0 0h512v256l-288 32Z"/><path fill="#0052b4" d="M224 256h288v256H0Z"/><path fill="#eee" d="M0 0v512l256-256z"/><path fill="#ffda44" d="M100 178a22 22 0 0 0-22 22 22 22 0 0 0 22 23 22 22 0 0 0 23-23 22 22 0 0 0-23-22m-72 78v6a72 72 0 1 0 144-6z"/><path fill="#d80027" d="M50 195v72c0 38 50 50 50 50s50-12 50-50v-72z"/><path fill="#338af3" d="M100 294c-9-3-28-12-28-27v-50h56v50c0 15-19 24-28 27"/><path fill="#eee" d="M111 245v-11l-11-6-11 6v11l-5 6v22h33v-22z"/></g></svg>