<svg xmlns="http://www.w3.org/2000/svg" width="512" height="512" viewBox="0 0 512 512"><mask id="a"><circle cx="256" cy="256" r="256" fill="#fff"/></mask><g mask="url(#a)"><path fill="#ffda44" d="m0 145 256-21 256 21v33l-37 79 37 77v33l-256 24L0 367v-33l38-77-38-79z"/><path fill="#0052b4" d="M0 0h512v145H0zm0 367h512v145H0z"/><path fill="#a2001d" d="M0 178h512v156H0z"/><path fill="#ffda44" d="M89 245h334v22H89zm45-45h245v23H134z"/><path fill="#eee" d="m256 189-18 65 18 69c67 0 124-67 124-67s-57-67-124-67"/><path fill="#333" d="M256 323c-67 0-124-67-124-67s57-67 124-67"/><path fill="#eee" d="M212 234h22v44h-22z"/><path fill="#333" d="M279 234h22v44h-23z"/><circle cx="89" cy="256" r="22.3" fill="#0052b4"/><circle cx="423" cy="256" r="22.3" fill="#0052b4"/></g></svg>