<svg xmlns="http://www.w3.org/2000/svg" width="512" height="512" viewBox="0 0 512 512"><mask id="a"><circle cx="256" cy="256" r="256" fill="#fff"/></mask><g mask="url(#a)"><path fill="#496e2d" d="M0 0h66l67 32 67-32h312v512H200l-67-32-67 32H0Z"/><path fill="#d80027" d="M66 0h134v512H66Z"/><path fill="#eee" d="m280 96 6 17-15 11h18l6 18 6-18h18l-15-11 6-17-15 11zm88 15c31 19 44 58 32 92a78 78 0 0 1-83 51l15 7a78 78 0 1 0 53-146zm-40 9 6 17-15 11h18l6 18 6-18h18l-15-11 6-17-15 11zm-48 24 6 17-15 11h18l6 18 6-18h18l-15-11 6-17-15 11zm-48 24 6 17-15 11h18l6 18 6-18h18l-15-11 6-17-15 11zm48 24 6 17-15 11h18l6 18 6-18h18l-15-11 6-17-15 11zM97 52l24-24h24l24 24v24l-24 24h-24L97 76zm0 384 24-24h24l24 24v24l-24 24h-24l-24-24z"/><path fill="#ff9811" d="M66 0v47l31-31L81 0zm119 0-16 16 31 31V0zm-64 28L97 52v12h36V28zm12 36v36h12l24-24V64zM66 81v62l31-31zm134 0-31 31 31 31zm-84 31-31 31v34l31 31-31 31v34l31 31-31 31v34l31 31h34l31-31v-34l-31-31 31-31v-34l-31-31 31-31v-34l-31-31zm-50 65v62l31-31zm134 0-31 31 31 31zM66 273v62l31-31zm134 0-31 31 31 31zM66 369v62l31-31zm134 0-31 31 31 31zm-79 43-24 24v12h36v-36zm12 36v36h12l24-24v-12zm-67 17v47h15l16-16zm134 0-31 31 16 16h15z"/><path fill="#496e2d" d="m121 124-24 24v24l24 24h24l24-24v-24l-24-24zm0 96-24 24v24l24 24h24l24-24v-24l-24-24zm0 96-24 24v24l24 24h24l24-24v-24l-24-24z"/><path fill="#d80027" d="M133 148a12 12 0 0 0-12 12 12 12 0 0 0 12 12 12 12 0 0 0 12-12 12 12 0 0 0-12-12m0 96a12 12 0 0 0-12 12 12 12 0 0 0 12 12 12 12 0 0 0 12-12 12 12 0 0 0-12-12m0 96a12 12 0 0 0-12 12 12 12 0 0 0 12 12 12 12 0 0 0 12-12 12 12 0 0 0-12-12"/></g></svg>