<svg xmlns="http://www.w3.org/2000/svg" xmlns:svg="http://www.w3.org/2000/svg" id="Layer_1" width="1140" height="855" fill="#000" version="1.1" viewBox="0 0 470.25 352.688" xml:space="preserve"><g id="XMLID_509_" transform="translate(70.124961,11.343741)"><path id="XMLID_510_" d="m 65,330 h 200 c 8.284,0 15,-6.716 15,-15 V 145 c 0,-8.284 -6.716,-15 -15,-15 H 250 V 85 C 250,38.131 211.869,0 165,0 118.131,0 80,38.131 80,85 v 45 H 65 c -8.284,0 -15,6.716 -15,15 v 170 c 0,8.284 6.716,15 15,15 z M 180,234.986 V 255 c 0,8.284 -6.716,15 -15,15 -8.284,0 -15,-6.716 -15,-15 v -20.014 c -6.068,-4.565 -10,-11.824 -10,-19.986 0,-13.785 11.215,-25 25,-25 13.785,0 25,11.215 25,25 0,8.162 -3.932,15.421 -10,19.986 z M 110,85 c 0,-30.327 24.673,-55 55,-55 30.327,0 55,24.673 55,55 v 45 H 110 Z"/></g><rect style="font-variation-settings:'wght' 680;fill:#a0e8f0;fill-opacity:0;stroke:#000;stroke-width:2.18086;stroke-opacity:0" id="rect1" width="468.069" height="350.507" x="1.09" y="1.09"/></svg>