<svg xmlns="http://www.w3.org/2000/svg" xmlns:svg="http://www.w3.org/2000/svg" id="svg2" width="512" height="512" version="1.1" viewBox="0 0 512 512" xml:space="preserve"><mask id="a"><circle id="circle1" cx="256" cy="256" r="256" fill="#fff"/></mask><circle style="fill:silver;fill-opacity:1;stroke:#000;stroke-width:0;stroke-dasharray:none;stroke-opacity:1;paint-order:markers stroke fill" id="path5-9" cx="256" cy="256" r="256"/><path id="path1-1" d="m 256.00014,84.427933 c -35.28649,0 -64.1668,27.623497 -64.1668,61.374097 0,29.5316 22.16632,54.3784 51.33338,60.1272 v 50.3456 H 217.50017 191.83334 89.166545 v 75.8065 a 38.500011,36.824334 0 0 0 -25.66654,34.6665 38.500011,36.824334 0 0 0 38.499965,36.8243 38.500011,36.824334 0 0 0 38.49997,-36.8243 38.500011,36.824334 0 0 0 -25.66654,-34.6665 v -51.2568 h 76.99994 v 51.2568 a 38.500011,36.824334 0 0 0 -25.66656,34.6665 38.500011,36.824334 0 0 0 38.49997,36.8243 38.500011,36.824334 0 0 0 38.49997,-36.8243 38.500011,36.824334 0 0 0 -25.66655,-34.6665 v -51.2568 h 76.99994 v 51.2568 a 38.500011,36.824334 0 0 0 -25.66685,34.6665 38.500011,36.824334 0 0 0 38.50027,36.8243 38.500011,36.824334 0 0 0 38.49997,-36.8243 38.500011,36.824334 0 0 0 -25.66684,-34.6665 v -51.2568 h 76.99995 v 51.2568 a 38.500011,36.824334 0 0 0 -25.66657,34.6665 38.500011,36.824334 0 0 0 38.49998,36.8243 38.500011,36.824334 0 0 0 38.49996,-36.8243 38.500011,36.824334 0 0 0 -25.66655,-34.6665 v -75.8065 H 320.16666 294.50011 268.83326 v -50.3456 c 0,0 0.0603,0 0.0603,0 29.16706,-5.7488 51.28358,-30.5956 51.28358,-60.1272 0,-33.7506 -28.88063,-61.374097 -64.16681,-61.374097 z m 0,24.549797 c 21.4148,0 38.49997,16.3412 38.49997,36.8243 0,20.4827 -17.08517,36.8242 -38.49997,36.8242 -21.4151,0 -38.49997,-16.3415 -38.49997,-36.8242 0,-20.4831 17.08487,-36.8243 38.49997,-36.8243 z" style="fill:#404040;fill-opacity:1;stroke-width:25.102"/></svg>