<svg xmlns="http://www.w3.org/2000/svg" xmlns:svg="http://www.w3.org/2000/svg" id="svg2" width="512" height="512" version="1.1" viewBox="0 0 512 512" xml:space="preserve"><mask id="a"><circle id="circle1" cx="256" cy="256" r="256" fill="#fff"/></mask><circle style="fill:silver;fill-opacity:1;stroke:#000;stroke-width:0;stroke-dasharray:none;stroke-opacity:1;paint-order:markers stroke fill" id="path5-9-4-6" cx="256" cy="256" r="256"/><g id="g1" transform="matrix(0.80208291,0,0,0.85293946,50.666732,55.647577)"><rect id="rect1-7" width="448" height="320" x="32" y="64" rx="32" ry="32" style="fill:none;stroke:#404040;stroke-width:32.0003;stroke-linejoin:round;stroke-dasharray:none;stroke-opacity:1"/><polygon style="fill:#acabb1;fill-opacity:0;stroke:#404040;stroke-width:32px;stroke-linecap:round;stroke-linejoin:round;stroke-opacity:1" id="polygon1" points="208 448 304 448 296 384 216 384"/><line id="line1" x1="368" x2="144" y1="448" y2="448" style="fill:none;stroke:#404040;stroke-width:32px;stroke-linecap:round;stroke-linejoin:round;stroke-opacity:1"/><path id="path1-2" d="m 32,304 v 48 a 32.09,32.09 0 0 0 32,32 h 384 a 32.09,32.09 0 0 0 32,-32 v -48 z m 224,64 a 16,16 0 1 1 16,-16 16,16 0 0 1 -16,16 z" style="fill:#404040;fill-opacity:1"/></g></svg>