<svg xmlns="http://www.w3.org/2000/svg" xmlns:svg="http://www.w3.org/2000/svg" id="svg1" width="800" height="600" version="1.1" viewBox="0 0 512 384"><title id="title1">ionicons-v5-h</title><g id="g1" transform="matrix(0.7903232,0,0,0.84043413,53.677261,-23.151137)"><rect id="rect1" width="448" height="320" x="32" y="64" rx="32" ry="32" style="fill:none;stroke:#000;stroke-width:32px;stroke-linejoin:round"/><polygon points="208 448 304 448 296 384 216 384" style="stroke:#000;stroke-width:32px;stroke-linecap:round;stroke-linejoin:round" id="polygon1"/><line id="line1" x1="368" x2="144" y1="448" y2="448" style="fill:none;stroke:#000;stroke-width:32px;stroke-linecap:round;stroke-linejoin:round"/><path id="path1" d="m 32,304 v 48 a 32.09,32.09 0 0 0 32,32 h 384 a 32.09,32.09 0 0 0 32,-32 v -48 z m 224,64 a 16,16 0 1 1 16,-16 16,16 0 0 1 -16,16 z"/></g><metadata id="metadata1"/></svg>