<svg xmlns="http://www.w3.org/2000/svg" xmlns:svg="http://www.w3.org/2000/svg" id="Capa_1" width="800" height="600" fill="#000" version="1.1" viewBox="0 0 26.39 19.793" xml:space="preserve"><g id="g2" transform="matrix(0.79237288,0,0,0.78001909,2.7396398,-0.3964919)"><g id="c14_house"><path id="path1" d="m 3.588,24.297 c 0,0 -0.024,0.59 0.553,0.59 0.718,0 6.652,-0.008 6.652,-0.008 l 0.01,-5.451 c 0,0 -0.094,-0.898 0.777,-0.898 h 2.761 c 1.031,0 0.968,0.898 0.968,0.898 l -0.012,5.434 c 0,0 5.628,0 6.512,0 0.732,0 0.699,-0.734 0.699,-0.734 V 14.076 L 13.33,5.913 3.588,14.077 Z"/><path id="path2" d="m 0,13.317 c 0,0 0.826,1.524 2.631,0 L 13.412,4.196 23.519,13.26 c 2.088,1.506 2.871,0 2.871,0 L 13.412,1.504 Z"/><polygon id="polygon2" points="23.273 4.175 20.674 4.175 20.685 7.328 23.273 9.525"/></g></g></svg>