<svg xmlns="http://www.w3.org/2000/svg" xmlns:svg="http://www.w3.org/2000/svg" id="svg2" width="512" height="512" version="1.1" viewBox="0 0 512 512" xml:space="preserve"><mask id="a"><circle id="circle1" cx="256" cy="256" r="256" fill="#fff"/></mask><circle style="fill:silver;fill-opacity:1;stroke:#000;stroke-width:0;stroke-dasharray:none;stroke-opacity:1;paint-order:markers stroke fill" id="path5-9-4" cx="256" cy="256" r="256"/><path id="path1-5" d="m 256.00019,66.893159 c -35.2864,0 -64.1668,28.5815 -64.1668,63.502701 0,30.5727 22.1426,56.2829 51.3332,62.2127 v 52.092 h -51.3332 v 78.4355 a 38.500014,38.101564 0 0 0 -25.6668,35.8692 38.500014,38.101564 0 0 0 38.5,38.1015 38.500014,38.101564 0 0 0 38.5,-38.1015 38.500014,38.101564 0 0 0 -25.6665,-35.8692 v -53.0347 h 179.6667 v 53.0347 a 38.500014,38.101564 0 0 0 -25.6665,35.8692 38.500014,38.101564 0 0 0 38.5,38.1015 38.500014,38.101564 0 0 0 38.4997,-38.1015 38.500014,38.101564 0 0 0 -25.6665,-35.8692 v -78.4355 h -154.0001 v -52.092 c 29.1907,-5.9298 51.3333,-31.64 51.3333,-62.2127 0,-34.921201 -28.8804,-63.502701 -64.1665,-63.502701 z m 0,25.4011 c 21.415,0 38.5,16.908101 38.5,38.101601 0,21.1931 -17.085,38.1015 -38.5,38.1015 -21.415,0 -38.5001,-16.9084 -38.5001,-38.1015 0,-21.1935 17.0851,-38.101601 38.5001,-38.101601 z M 102.00009,320.90366 a 38.500014,38.101564 0 0 0 -38.5001,38.1016 38.500014,38.101564 0 0 0 38.5001,38.1015 38.500014,38.101564 0 0 0 38.5,-38.1015 38.500014,38.101564 0 0 0 -38.5,-38.1016 z m 205.3334,0 a 38.500014,38.101564 0 0 0 -38.5001,38.1016 38.500014,38.101564 0 0 0 38.5001,38.1015 38.500014,38.101564 0 0 0 38.5,-38.1015 38.500014,38.101564 0 0 0 -38.5,-38.1016 z" style="fill:#404040;fill-opacity:1;stroke-width:25.5335"/></svg>