<svg xmlns="http://www.w3.org/2000/svg" xmlns:svg="http://www.w3.org/2000/svg" id="svg1" width="16" height="12" version="1.1" viewBox="0 0 16 12"><path id="path1" d="m 8,0.38135591 c -1.2008049,0 -2.1836158,0.97263949 -2.1836158,2.16101699 0,1.0404024 0.7535207,1.9153336 1.7468927,2.1171214 V 6.4322034 H 5.8163842 V 9.1013973 A 1.3101695,1.2966101 0 0 0 4.9429379,10.322034 1.3101695,1.2966101 0 0 0 6.2531073,11.618644 1.3101695,1.2966101 0 0 0 7.5632769,10.322034 1.3101695,1.2966101 0 0 0 6.6898305,9.1013973 V 7.2966102 h 6.1141255 v 1.8047871 a 1.3101695,1.2966101 0 0 0 -0.873447,1.2206367 1.3101695,1.2966101 0 0 0 1.31017,1.29661 1.3101695,1.2966101 0 0 0 1.310169,-1.29661 1.3101695,1.2966101 0 0 0 -0.873446,-1.2206367 V 6.4322034 H 8.4367232 V 4.6594943 C 9.4300952,4.4577065 10.183616,3.5827753 10.183616,2.5423729 10.183616,1.3539954 9.200805,0.38135591 8,0.38135591 Z M 8,1.2457628 c 0.7287594,0 1.3101695,0.5753928 1.3101695,1.2966101 C 9.3101695,3.2635902 8.7287594,3.838983 8,3.838983 7.2712406,3.838983 6.6898305,3.2635902 6.6898305,2.5423729 6.6898305,1.8211556 7.2712406,1.2457628 8,1.2457628 Z M 2.759322,9.0254237 A 1.3101695,1.2966101 0 0 0 1.4491525,10.322034 1.3101695,1.2966101 0 0 0 2.759322,11.618644 1.3101695,1.2966101 0 0 0 4.0694916,10.322034 1.3101695,1.2966101 0 0 0 2.759322,9.0254237 Z m 6.9875706,0 a 1.3101695,1.2966101 0 0 0 -1.3101694,1.2966103 1.3101695,1.2966101 0 0 0 1.3101694,1.29661 1.3101695,1.2966101 0 0 0 1.3101694,-1.29661 1.3101695,1.2966101 0 0 0 -1.3101694,-1.2966103 z" style="stroke-width:.868915"/></svg>