<?xml version="1.0" encoding="UTF-8" standalone="no"?>
<svg
   width="512"
   height="511.99997"
   viewBox="0 0 512 511.99997"
   version="1.1"
   id="svg2"
   xml:space="preserve"
   xmlns="http://www.w3.org/2000/svg"
   xmlns:svg="http://www.w3.org/2000/svg"><defs
     id="defs2" /><mask
     id="a"><circle
       cx="256"
       cy="256"
       r="256"
       fill="#ffffff"
       id="circle1" /></mask><circle
     style="fill:#c0c0c0;fill-opacity:1;stroke:#000000;stroke-width:0;stroke-dasharray:none;stroke-opacity:1;paint-order:markers stroke fill"
     id="path5-9-4-3"
     cx="256"
     cy="256"
     r="256" /><g
     mask="url(#a)"
     id="g2"
     transform="translate(-7.6171876e-8,-7.9999998)"
     style="fill:#404040;fill-opacity:1"><g
       id="g3"
       transform="matrix(1.2989803,0,0,1.2989803,-76.604089,-78.411207)"
       style="fill:#404040;fill-opacity:1"><circle
         cx="253"
         cy="380"
         r="32"
         fill="#acabb1"
         id="circle2"
         style="fill:#404040;fill-opacity:1" /><path
         fill="#acabb1"
         d="m 322.4,135.5 c -15.6,-13.6 -37.4,-20.3 -65.5,-20.3 -27.9,0 -49.9,7.2 -66,21.4 A 74.9,74.9 0 0 0 166.6,192 h -0.2 v 12.8 H 224 l 0.1,-9 a 35.2,35.2 0 0 1 9.3,-24.8 c 5.8,-6.1 13.7,-9 23.5,-9 20.7,0 31,11 31,33.4 0,7.4 -2,14.5 -6,21.1 a 124.2,124.2 0 0 1 -23.9,26 90.4,90.4 0 0 0 -24.8,32.3 c -4.5,11 -6.8,26.7 -6.8,45.2 h 51 l 0.8,-13.1 A 54,54 0 0 1 295.5,273 l 16.2,-15.2 a 131.4,131.4 0 0 0 26.4,-33.2 69.5,69.5 0 0 0 7.6,-31.8 c -0.1,-24.7 -7.8,-43.7 -23.3,-57.3 z"
         id="path2"
         style="fill:#404040;fill-opacity:1" /></g></g></svg>
