<svg xmlns="http://www.w3.org/2000/svg" xmlns:svg="http://www.w3.org/2000/svg" id="svg2" width="512" height="512" version="1.1" viewBox="0 0 512 512" xml:space="preserve"><mask id="a"><circle id="circle1" cx="256" cy="256" r="256" fill="#fff"/></mask><circle style="fill:silver;fill-opacity:1;stroke:#000;stroke-width:0;stroke-dasharray:none;stroke-opacity:1;paint-order:markers stroke fill" id="path5-9-4-3" cx="256" cy="256" r="256"/><g id="g2" mask="url(#a)" transform="translate(-7.6171876e-8,-7.9999998)" style="fill:#404040;fill-opacity:1"><g id="g3" transform="matrix(1.2989803,0,0,1.2989803,-76.604089,-78.411207)" style="fill:#404040;fill-opacity:1"><circle id="circle2" cx="253" cy="380" r="32" fill="#acabb1" style="fill:#404040;fill-opacity:1"/><path id="path2" fill="#acabb1" d="m 322.4,135.5 c -15.6,-13.6 -37.4,-20.3 -65.5,-20.3 -27.9,0 -49.9,7.2 -66,21.4 A 74.9,74.9 0 0 0 166.6,192 h -0.2 v 12.8 H 224 l 0.1,-9 a 35.2,35.2 0 0 1 9.3,-24.8 c 5.8,-6.1 13.7,-9 23.5,-9 20.7,0 31,11 31,33.4 0,7.4 -2,14.5 -6,21.1 a 124.2,124.2 0 0 1 -23.9,26 90.4,90.4 0 0 0 -24.8,32.3 c -4.5,11 -6.8,26.7 -6.8,45.2 h 51 l 0.8,-13.1 A 54,54 0 0 1 295.5,273 l 16.2,-15.2 a 131.4,131.4 0 0 0 26.4,-33.2 69.5,69.5 0 0 0 7.6,-31.8 c -0.1,-24.7 -7.8,-43.7 -23.3,-57.3 z" style="fill:#404040;fill-opacity:1"/></g></g></svg>