<?xml version="1.0" encoding="UTF-8" standalone="no"?>
<!DOCTYPE svg PUBLIC "-//W3C//DTD SVG 1.1//EN" "http://www.w3.org/Graphics/SVG/1.1/DTD/svg11.dtd">
<!-- Created with Vectornator (http://vectornator.io/) -->
<svg height="100%" stroke-miterlimit="10" style="fill-rule:nonzero;clip-rule:evenodd;stroke-linecap:round;stroke-linejoin:round;" version="1.1" viewBox="0 0 1024 1024" width="100%" xml:space="preserve" xmlns="http://www.w3.org/2000/svg" xmlns:xlink="http://www.w3.org/1999/xlink">
<defs>
<filter color-interpolation-filters="sRGB" filterUnits="userSpaceOnUse" height="1053" id="Filter" width="429" x="299.292" y="-9.8321">
<feDropShadow dx="1.79184" dy="4.6679" flood-color="#000000" flood-opacity="1" in="SourceGraphic" result="Shadow" stdDeviation="5"/>
</filter>
</defs>
<clipPath id="ArtboardFrame">
<rect height="1024" width="1024" x="0" y="0"/>
</clipPath>
<g clip-path="url(#ArtboardFrame)" id="Layer-2">
<g opacity="1">
<path d="M300-3.4135e-16L844 1.86072e-13C943.411 2.50466e-13 1024 80.5887 1024 180L1024 844C1024 943.411 943.411 1024 844 1024L300 1024" fill="#0059b3" fill-rule="nonzero" opacity="1" stroke="none"/>
<path d="M180 0C80.5887 0 0 80.5887 0 180L0 844C0 943.411 80.5887 1024 180 1024L312 1024C312 1024 515.262 984.775 593.312 923.375C669.272 863.62 627.906 730.434 589.531 666.5C575.42 642.989 453.344 319.5 453.344 319.5L430.875 222.406C430.875 222.406 409.231 122.571 502 77.4062C594.769 32.2411 712 0 712 0L180 0Z" fill="#b35900" fill-rule="nonzero" opacity="1" stroke="none"/>
<g filter="url(#Filter)">
<path d="M711.469-1.9375C688.272 4.52661 665.313 11.9557 642.5 19.6562C607.39 31.5075 572.634 44.469 538.594 59.125C529.047 63.2353 519.578 67.5128 510.188 71.9688C502.537 75.5989 494.907 79.2855 487.719 83.7812C476.81 90.6035 466.832 98.9497 458.406 108.688C434.184 136.681 424.914 174.469 428.188 210.906C428.524 214.656 428.997 218.396 429.719 222.094C430.548 226.344 431.643 230.564 432.625 234.781C434.391 242.364 436.17 249.949 437.938 257.531C442.769 278.256 447.5 299.003 452.5 319.688C452.678 320.425 453.043 321.169 453.312 321.875C453.86 323.31 454.421 324.753 454.969 326.188C456.7 330.72 458.422 335.25 460.156 339.781C465.361 353.383 470.56 366.968 475.781 380.562C491.588 421.72 507.41 462.879 523.312 504C536.967 539.307 550.661 574.601 564.719 609.75C569.438 621.549 574.208 633.344 579.125 645.062C580.948 649.407 582.79 653.732 584.719 658.031C585.986 660.855 587.218 663.713 588.75 666.406C592.089 672.277 595.445 678.128 598.5 684.156C608.684 704.252 616.93 725.362 623.188 747C629.142 767.592 633.294 788.825 634.531 810.25C636.152 838.324 632.673 867.697 618.531 892.469C613.399 901.46 606.903 909.677 599.312 916.719C591.15 924.29 581.739 930.562 572.219 936.281C561.673 942.616 550.72 948.231 539.562 953.406C523.075 961.053 506.154 967.742 489.062 973.906C466.665 981.984 443.931 989.085 421.031 995.594C398.801 1001.91 376.415 1007.67 353.906 1012.91C339.871 1016.17 325.783 1019.33 311.625 1022.03C310.541 1022.24 309.822 1023.29 310.031 1024.38C310.241 1025.46 311.291 1026.18 312.375 1025.97C326.57 1023.19 340.68 1019.94 354.75 1016.59C377.289 1011.23 399.716 1005.36 421.969 998.906C444.906 992.258 467.671 985.008 490.094 976.781C507.231 970.494 524.2 963.654 540.719 955.875C554.013 949.614 567.033 942.743 579.375 934.75C587.752 929.326 595.907 923.394 603 916.344C609.798 909.586 615.647 901.854 620.344 893.5C634.504 868.31 638.118 838.59 636.438 810.125C635.225 789.58 631.294 769.248 625.688 749.469C619.241 726.725 610.529 704.556 599.719 683.531C596.619 677.502 593.228 671.682 589.844 665.812C588.138 662.855 586.745 659.671 585.344 656.562C583.558 652.601 581.858 648.624 580.156 644.625C575.041 632.605 570.095 620.494 565.219 608.375C551.224 573.596 537.614 538.666 524.125 503.688C508.262 462.553 492.576 421.35 477.031 380.094C471.897 366.467 466.769 352.854 461.656 339.219C459.953 334.676 458.263 330.106 456.562 325.562C456.024 324.124 455.475 322.688 454.938 321.25C454.76 320.775 454.584 320.319 454.406 319.844C454.354 319.703 454.302 319.578 454.25 319.438C454.235 319.396 454.201 319.364 454.188 319.312C454.189 319.321 454.192 319.289 454.188 319.281C454.179 319.264 454.17 319.201 454.156 319.219C454.049 318.745 453.952 318.255 453.844 317.781C453.728 317.275 453.615 316.787 453.5 316.281C453.154 314.763 452.816 313.237 452.469 311.719C451.428 307.165 450.384 302.617 449.344 298.062C446.222 284.4 443.107 270.721 439.969 257.062C438.109 248.968 436.236 240.875 434.375 232.781C433.527 229.091 432.563 225.405 431.844 221.688C431.21 218.41 430.787 215.102 430.469 211.781C427.088 176.531 435.581 139.585 458.594 112.094C466.601 102.527 476.157 94.3287 486.625 87.5625C494.494 82.4766 502.87 78.3971 511.344 74.4375C521.227 69.8194 531.205 65.4105 541.25 61.1562C573.96 47.3028 607.361 35.0847 641.062 23.875C656.024 18.8985 671.059 14.1446 686.156 9.59375C694.919 6.95224 703.7 4.34185 712.531 1.9375C713.596 1.64407 714.231 0.533632 713.938-0.53125C713.644-1.59613 712.534-2.23093 711.469-1.9375Z" fill="#000000" stroke="none"/>
</g>
</g>
</g>
<g id="Layer-1">
<g opacity="1">
<path d="M347.158 102.667C333.67 103.768 320.252 110.257 312.022 120.914C306.634 127.89 302.66 136.266 299.909 144.882C265.616 252.321 234.811 361.055 201.019 468.682C196.005 484.654 193.75 502.95 183.522 515.613C177.967 522.491 167.183 520.334 158.8 520.948C119.732 523.824 59.4369 502.634 26.7585 483.372C19.9866 479.381 34.5106 508.435 40.9261 523.654C45.7115 535.005 53.9336 537.294 61.7524 540.432C75.2484 546.194 80.5345 547.105 95.4711 549.942C125.88 555.716 141.259 556.178 172.118 556.591C284.143 558.093 400.593 558.208 512.705 558.988C513.744 558.98 514.783 558.994 515.822 558.988C627.84 558.209 739.864 558.094 851.876 556.591C882.736 556.178 898.116 555.716 928.523 549.942C943.46 547.105 948.816 546.195 962.312 540.432C970.13 537.293 978.353 535.005 983.139 523.654C989.555 508.435 1004.01 479.381 997.235 483.372C964.557 502.634 904.262 523.824 865.194 520.948C856.812 520.332 846.026 522.491 840.472 515.613C830.243 502.95 827.989 484.653 822.975 468.682C789.183 361.055 758.378 252.321 724.085 144.882C721.334 136.266 717.36 127.89 711.972 120.914C703.742 110.257 690.324 103.768 676.836 102.667C668.744 102.007 660.607 103.288 653.602 106.765C620.542 123.174 589.576 144.297 556.625 160.964C545.906 166.385 534.138 170.722 523.544 176.427C519.782 178.453 523.555 176.303 513.06 181.762C500.484 176.32 504.227 178.46 500.45 176.427C489.856 170.722 478.088 166.385 467.369 160.964C434.418 144.297 403.452 123.174 370.392 106.765C363.387 103.288 355.25 102.007 347.158 102.667ZM512.564 459.157L513.697 459.157L776.481 460.151C778.29 460.158 779.954 461.141 780.832 462.722L789.517 478.344C791.37 481.677 788.96 485.774 785.147 485.774L515.822 485.774L512.705 485.774L238.847 485.774C235.033 485.774 232.624 481.677 234.476 478.344L243.162 462.722C244.04 461.141 245.704 460.158 247.513 460.151L512.564 459.157Z" fill="#000000" fill-rule="nonzero" opacity="1" stroke="none"/>
<g opacity="1">
<path d="M364.728 585.926C323.17 585.102 293.324 586.339 275.189 589.638C257.055 592.936 245.343 596.235 240.054 599.534C234.765 602.833 228.72 608.606 221.919 616.853C215.119 625.1 210.208 644.068 207.185 658.913C204.163 673.758 202.652 690.252 202.652 708.395C202.652 726.539 203.407 733.549 204.918 739.322C206.43 745.095 210.963 753.754 218.519 765.3C226.075 776.846 237.032 786.743 251.388 794.99C265.744 803.237 289.168 807.36 321.659 807.36C354.15 807.36 373.796 806.536 380.596 804.886C387.396 803.237 396.841 798.288 408.931 790.041C421.021 781.794 431.599 772.31 440.666 761.589C449.734 750.868 457.667 738.497 464.468 724.477C471.268 710.457 476.558 700.973 480.336 686.128C484.114 671.284 491.9 665.789 497.337 660.15C507.433 649.677 526.912 660.083 512 648.321C497.3 660.073 516.567 649.677 526.663 660.15C532.1 665.789 539.886 671.284 543.664 686.128C547.442 700.973 552.732 710.457 559.532 724.477C566.333 738.497 574.266 750.868 583.334 761.589C592.401 772.31 602.979 781.794 615.069 790.041C627.159 798.288 636.604 803.237 643.404 804.886C650.204 806.536 669.85 807.36 702.341 807.36C734.832 807.36 758.256 803.237 772.612 794.99C786.968 786.743 797.925 776.846 805.481 765.3C813.037 753.754 817.57 745.095 819.082 739.322C820.593 733.549 821.348 726.539 821.348 708.395C821.348 690.252 819.837 673.758 816.815 658.913C813.792 644.068 808.881 625.1 802.081 616.853C795.28 608.606 789.235 602.833 783.946 599.534C778.657 596.235 766.945 592.936 748.811 589.638C730.676 586.339 700.83 585.102 659.272 585.926C617.714 586.751 592.023 588.813 582.2 592.112C572.377 595.411 564.066 600.771 557.265 608.194C550.465 615.616 532.26 617.234 532.26 617.234C532.26 617.234 522.13 612.378 512 612.378C501.87 612.378 491.74 617.234 491.74 617.234C491.74 617.234 473.535 615.616 466.735 608.194C459.934 600.771 451.623 595.411 441.8 592.112C431.977 588.813 406.286 586.751 364.728 585.926Z" fill="#000000" fill-rule="nonzero" opacity="1" stroke="none"/>
<path d="M517.255 689.263C509.815 688.743 500.804 692.963 489.854 703.853C465.529 728.046 471.538 771.425 462.514 805.259C455.505 831.539 427.405 838.524 433.298 869.694C439.478 902.381 462.674 900.855 485.741 909.042C499.427 913.9 501.3 923.326 517.316 921.19C533.096 919.085 522.347 914.68 539.696 908.778C559.197 902.144 572.219 908.399 584.699 888.708C605.923 855.221 571.655 834.007 561.714 807.108C552.753 782.863 549.497 691.515 517.255 689.263ZM511.146 700.684C526.916 701.275 530.751 707.728 534.373 723.659C539.434 745.915 543.155 768.514 548.104 790.801C553.944 817.103 562.675 824.331 578.771 843.683C603.555 873.48 564.272 898.266 543.083 899.271C545.014 883.469 549.108 889.289 554.697 877.089C525.734 870.904 537.872 914.366 514.049 913.267C488.985 912.112 497.57 893.616 485.015 878.145C482.319 874.822 469.927 867.636 470.438 878.079C470.77 884.874 479.877 888.898 481.144 899.271C397.734 884.052 465.639 835.52 473.946 795.224C478.483 773.215 481.755 750.906 486.467 728.941C489.498 714.808 495.714 700.107 511.146 700.684Z" fill="#000000" fill-rule="nonzero" opacity="1" stroke="#000000" stroke-linecap="round" stroke-linejoin="round" stroke-width="6.31675"/>
</g>
</g>
</g>
</svg>
