<?xml version="1.0" encoding="UTF-8" standalone="no"?>
<!DOCTYPE svg PUBLIC "-//W3C//DTD SVG 1.1//EN" "http://www.w3.org/Graphics/SVG/1.1/DTD/svg11.dtd">
<!-- Created with Vectornator (http://vectornator.io/) -->
<svg height="100%" stroke-miterlimit="10" style="fill-rule:nonzero;clip-rule:evenodd;stroke-linecap:round;stroke-linejoin:round;" version="1.1" viewBox="0 -9.8321 1024 1053" width="100%" xml:space="preserve" xmlns="http://www.w3.org/2000/svg" xmlns:xlink="http://www.w3.org/1999/xlink">
<defs>
<filter color-interpolation-filters="sRGB" filterUnits="userSpaceOnUse" height="1053" id="Filter" width="429" x="299.292" y="-9.8321">
<feDropShadow dx="1.79184" dy="4.6679" flood-color="#000000" flood-opacity="1" in="SourceGraphic" result="Shadow" stdDeviation="5"/>
</filter>
</defs>
<g id="Layer-2">
<g opacity="1">
<path d="M300-3.4135e-16L844 1.86072e-13C943.411 2.50466e-13 1024 80.5887 1024 180L1024 844C1024 943.411 943.411 1024 844 1024L300 1024" fill="#0059b3" fill-rule="nonzero" opacity="1" stroke="none"/>
<path d="M180 0C80.5887 0 0 80.5887 0 180L0 844C0 943.411 80.5887 1024 180 1024L312 1024C312 1024 515.262 984.775 593.312 923.375C669.272 863.62 627.906 730.434 589.531 666.5C575.42 642.989 453.344 319.5 453.344 319.5L430.875 222.406C430.875 222.406 409.231 122.571 502 77.4062C594.769 32.2411 712 0 712 0L180 0Z" fill="#b35900" fill-rule="nonzero" opacity="1" stroke="none"/>
<g filter="url(#Filter)">
<path d="M711.469-1.9375C688.272 4.52661 665.313 11.9557 642.5 19.6562C607.39 31.5075 572.634 44.469 538.594 59.125C529.047 63.2353 519.578 67.5128 510.188 71.9688C502.537 75.5989 494.907 79.2855 487.719 83.7812C476.81 90.6035 466.832 98.9497 458.406 108.688C434.184 136.681 424.914 174.469 428.188 210.906C428.524 214.656 428.997 218.396 429.719 222.094C430.548 226.344 431.643 230.564 432.625 234.781C434.391 242.364 436.17 249.949 437.938 257.531C442.769 278.256 447.5 299.003 452.5 319.688C452.678 320.425 453.043 321.169 453.312 321.875C453.86 323.31 454.421 324.753 454.969 326.188C456.7 330.72 458.422 335.25 460.156 339.781C465.361 353.383 470.56 366.968 475.781 380.562C491.588 421.72 507.41 462.879 523.312 504C536.967 539.307 550.661 574.601 564.719 609.75C569.438 621.549 574.208 633.344 579.125 645.062C580.948 649.407 582.79 653.732 584.719 658.031C585.986 660.855 587.218 663.713 588.75 666.406C592.089 672.277 595.445 678.128 598.5 684.156C608.684 704.252 616.93 725.362 623.188 747C629.142 767.592 633.294 788.825 634.531 810.25C636.152 838.324 632.673 867.697 618.531 892.469C613.399 901.46 606.903 909.677 599.312 916.719C591.15 924.29 581.739 930.562 572.219 936.281C561.673 942.616 550.72 948.231 539.562 953.406C523.075 961.053 506.154 967.742 489.062 973.906C466.665 981.984 443.931 989.085 421.031 995.594C398.801 1001.91 376.415 1007.67 353.906 1012.91C339.871 1016.17 325.783 1019.33 311.625 1022.03C310.541 1022.24 309.822 1023.29 310.031 1024.38C310.241 1025.46 311.291 1026.18 312.375 1025.97C326.57 1023.19 340.68 1019.94 354.75 1016.59C377.289 1011.23 399.716 1005.36 421.969 998.906C444.906 992.258 467.671 985.008 490.094 976.781C507.231 970.494 524.2 963.654 540.719 955.875C554.013 949.614 567.033 942.743 579.375 934.75C587.752 929.326 595.907 923.394 603 916.344C609.798 909.586 615.647 901.854 620.344 893.5C634.504 868.31 638.118 838.59 636.438 810.125C635.225 789.58 631.294 769.248 625.688 749.469C619.241 726.725 610.529 704.556 599.719 683.531C596.619 677.502 593.228 671.682 589.844 665.812C588.138 662.855 586.745 659.671 585.344 656.562C583.558 652.601 581.858 648.624 580.156 644.625C575.041 632.605 570.095 620.494 565.219 608.375C551.224 573.596 537.614 538.666 524.125 503.688C508.262 462.553 492.576 421.35 477.031 380.094C471.897 366.467 466.769 352.854 461.656 339.219C459.953 334.676 458.263 330.106 456.562 325.562C456.024 324.124 455.475 322.688 454.938 321.25C454.76 320.775 454.584 320.319 454.406 319.844C454.354 319.703 454.302 319.578 454.25 319.438C454.235 319.396 454.201 319.364 454.188 319.312C454.189 319.321 454.192 319.289 454.188 319.281C454.179 319.264 454.17 319.201 454.156 319.219C454.049 318.745 453.952 318.255 453.844 317.781C453.728 317.275 453.615 316.787 453.5 316.281C453.154 314.763 452.816 313.237 452.469 311.719C451.428 307.165 450.384 302.617 449.344 298.062C446.222 284.4 443.107 270.721 439.969 257.062C438.109 248.968 436.236 240.875 434.375 232.781C433.527 229.091 432.563 225.405 431.844 221.688C431.21 218.41 430.787 215.102 430.469 211.781C427.088 176.531 435.581 139.585 458.594 112.094C466.601 102.527 476.157 94.3287 486.625 87.5625C494.494 82.4766 502.87 78.3971 511.344 74.4375C521.227 69.8194 531.205 65.4105 541.25 61.1562C573.96 47.3028 607.361 35.0847 641.062 23.875C656.024 18.8985 671.059 14.1446 686.156 9.59375C694.919 6.95224 703.7 4.34185 712.531 1.9375C713.596 1.64407 714.231 0.533632 713.938-0.53125C713.644-1.59613 712.534-2.23093 711.469-1.9375Z" fill="#000000" stroke="none"/>
</g>
</g>
</g>
</svg>
