<?xml version="1.0" encoding="UTF-8" standalone="no"?>
<svg
   id="svg2"
   width="512"
   height="512"
   version="1.1"
   viewBox="0 0 512 512"
   xml:space="preserve"
   xmlns="http://www.w3.org/2000/svg"
   xmlns:svg="http://www.w3.org/2000/svg"><defs
     id="defs1" /><mask
     id="a"><circle
       id="circle1"
       cx="256"
       cy="256"
       r="256"
       fill="#ffffff" /></mask><circle
     style="fill:#c0c0c0;fill-opacity:1;stroke:#000000;stroke-width:0;stroke-dasharray:none;stroke-opacity:1;paint-order:markers stroke fill"
     id="path5-9-4-7-3-7"
     cx="256"
     cy="256"
     r="256" /><g
     id="Layer_2"
     data-name="Layer 2"
     transform="matrix(8.0208333,0,0,8.0208333,63.499997,63.499999)"><g
       id="invisible_box"
       data-name="invisible box"><rect
         width="48"
         height="48"
         fill="none"
         id="rect1"
         x="0"
         y="0" /></g><g
       id="icons_Q2"
       data-name="icons Q2"
       transform="matrix(1.0920446,0,0,1.0920446,-2.2090699,-2.4618869)"
       style="fill:#404040;fill-opacity:1"><path
         d="m 20,40 h -0.5 a 2,2 0 0 1 -1.4,-2.5 l 8,-27.9 a 2,2 0 0 1 3.8,1 l -8,28 A 1.9,1.9 0 0 1 20,40 Z"
         id="path1-4"
         style="fill:#404040;fill-opacity:1" /><path
         d="m 14,35 a 2,2 0 0 0 1.3,-3.5 L 7,24 15.3,16.5 a 2,2 0 0 0 -2.6,-3 l -10,9 a 2,2 0 0 0 0,3 l 10,9 A 1.9,1.9 0 0 0 14,35 Z"
         id="path2"
         style="fill:#404040;fill-opacity:1" /><path
         d="M 34,35 A 2,2 0 0 1 32.7,31.5 L 41,24 32.7,16.5 a 2,2 0 1 1 2.6,-3 l 10,9 a 2,2 0 0 1 0,3 l -10,9 A 1.9,1.9 0 0 1 34,35 Z"
         id="path3"
         style="fill:#404040;fill-opacity:1" /></g></g></svg>
