<?xml version="1.0" encoding="UTF-8"?>
<svg xmlns="http://www.w3.org/2000/svg" xmlns:xlink="http://www.w3.org/1999/xlink" width="800px" height="600px" viewBox="0 0 800 600" version="1.1">
<g id="surface1">
<path style=" stroke:none;fill-rule:nonzero;fill:rgb(0%,0%,0%);fill-opacity:1;" d="M 412.941406 485.992188 L 374.300781 485.992188 C 347.089844 485.992188 324.972656 502.578125 324.972656 522.988281 L 324.972656 563.003906 C 324.972656 583.414062 347.089844 600 374.300781 600 L 412.941406 600 C 440.152344 600 462.265625 583.414062 462.265625 563.003906 L 462.265625 522.988281 C 462.265625 502.519531 440.152344 485.992188 412.941406 485.992188 Z M 412.941406 485.992188 "/>
<path style=" stroke:none;fill-rule:nonzero;fill:rgb(0%,0%,0%);fill-opacity:1;" d="M 140.492188 176.21875 L 211.769531 182.878906 C 234.375 184.976562 255.832031 175.234375 263.972656 159.265625 C 274.25 139.101562 288.554688 123.195312 306.886719 111.601562 C 332.867188 95.199219 365.175781 86.9375 403.816406 86.9375 C 443.851562 86.9375 475.75 94.832031 499.425781 110.554688 C 523.101562 126.339844 534.859375 145.207031 534.859375 167.339844 C 534.859375 183.25 528.199219 197.800781 514.882812 210.996094 C 506.25 219.382812 479.695312 237.015625 435.382812 263.960938 C 390.988281 290.90625 361.476562 315.199219 346.679688 336.777344 C 331.550781 358.851562 326.289062 383.332031 324.976562 407.871094 C 323.824219 428.898438 346.183594 446.410156 374.300781 446.410156 L 414.585938 446.410156 C 440.234375 446.410156 461.445312 431.671875 463.746094 412.558594 C 465.390625 398.808594 468.433594 388.386719 473.039062 381.296875 C 480.765625 369.148438 500.742188 353.117188 532.804688 333.140625 C 594.875 294.605469 635.320312 264.144531 654.3125 241.703125 C 673.222656 219.320312 682.757812 195.582031 682.757812 170.484375 C 682.757812 125.167969 657.027344 85.398438 605.480469 51.238281 C 554.015625 17.078125 484.628906 0 397.484375 0 C 314.617188 0 247.777344 16.832031 196.808594 50.558594 C 153.398438 79.292969 127.007812 113.328125 117.71875 152.605469 C 114.839844 164.074219 125.28125 174.800781 140.492188 176.21875 Z M 140.492188 176.21875 "/>
</g>
</svg>
