<svg xmlns="http://www.w3.org/2000/svg" viewBox="0 0 16 16"><path d="M 7.5 1 C 6.1252104 1 5 2.1252104 5 3.5 C 5 4.7029409 5.8636261 5.7150505 7 5.9492188 L 7 8 L 6 8 L 5 8 L 1 8 L 1 11.087891 A 1.5 1.5 0 0 0 0 12.5 A 1.5 1.5 0 0 0 1.5 14 A 1.5 1.5 0 0 0 3 12.5 A 1.5 1.5 0 0 0 2 11.087891 L 2 9 L 5 9 L 5 11.087891 A 1.5 1.5 0 0 0 4 12.5 A 1.5 1.5 0 0 0 5.5 14 A 1.5 1.5 0 0 0 7 12.5 A 1.5 1.5 0 0 0 6 11.087891 L 6 9 L 9 9 L 9 11.087891 A 1.5 1.5 0 0 0 8 12.5 A 1.5 1.5 0 0 0 9.5 14 A 1.5 1.5 0 0 0 11 12.5 A 1.5 1.5 0 0 0 10 11.087891 L 10 9 L 13 9 L 13 11.087891 A 1.5 1.5 0 0 0 12 12.5 A 1.5 1.5 0 0 0 13.5 14 A 1.5 1.5 0 0 0 15 12.5 A 1.5 1.5 0 0 0 14 11.087891 L 14 8 L 10 8 L 9 8 L 8 8 L 8 5.9492188 C 8 5.9492188 8.0019531 5.9492188 8.0019531 5.9492188 C 9.1383271 5.7150505 10 4.7029409 10 3.5 C 10 2.1252104 8.8747896 1 7.5 1 z M 7.5 2 C 8.3343494 2 9 2.6656506 9 3.5 C 9 4.3343494 8.3343494 5 7.5 5 C 6.6656506 5 6 4.3343494 6 3.5 C 6 2.6656506 6.6656506 2 7.5 2 z"/></svg>