<svg xmlns="http://www.w3.org/2000/svg" xmlns:svg="http://www.w3.org/2000/svg" id="svg1" width="16" height="12" version="1.1" viewBox="0 0 16 12"><path id="path1" d="m 8,0.71301954 c -1.1691131,0 -2.1259857,0.91522546 -2.1259857,2.03345416 0,0.97845 0.7344227,1.8016813 1.7007886,1.9921495 V 6.406691 H 6.7244086 5.8740143 2.4724373 V 8.9183249 A 1.2755914,1.2200725 0 0 0 1.622043,10.066908 1.2755914,1.2200725 0 0 0 2.8976344,11.28698 1.2755914,1.2200725 0 0 0 4.1732258,10.066908 1.2755914,1.2200725 0 0 0 3.3228316,8.9183249 V 7.2200726 H 5.8740143 V 8.9183249 A 1.2755914,1.2200725 0 0 0 5.02362,10.066908 1.2755914,1.2200725 0 0 0 6.2992115,11.28698 1.2755914,1.2200725 0 0 0 7.5748029,10.066908 1.2755914,1.2200725 0 0 0 6.7244086,8.9183249 V 7.2200726 H 9.2755918 V 8.9183249 A 1.2755914,1.2200725 0 0 0 8.4251972,10.066908 1.2755914,1.2200725 0 0 0 9.700789,11.28698 1.2755914,1.2200725 0 0 0 10.976379,10.066908 1.2755914,1.2200725 0 0 0 10.125986,8.9183249 V 7.2200726 h 2.551182 v 1.6982523 a 1.2755914,1.2200725 0 0 0 -0.850394,1.1485831 1.2755914,1.2200725 0 0 0 1.275591,1.220072 1.2755914,1.2200725 0 0 0 1.275592,-1.220072 1.2755914,1.2200725 0 0 0 -0.850394,-1.1485831 V 6.406691 H 10.125986 9.2755918 8.4251972 V 4.7386232 c 0,0 0.00166,0 0.00166,0 C 9.3932263,4.548155 10.125989,3.7249237 10.125989,2.7464737 10.125989,1.628245 9.1691159,0.71301954 8.0000027,0.71301954 Z M 8,1.5264012 c 0.709526,0 1.2755918,0.541428 1.2755918,1.2200725 0,0.6786444 -0.5660658,1.2200724 -1.2755918,1.2200724 -0.7095259,0 -1.2755914,-0.541428 -1.2755914,-1.2200724 C 6.7244086,2.0678292 7.2904741,1.5264012 8,1.5264012 Z" style="stroke-width:.831683"/></svg>