<?xml version="1.0" encoding="UTF-8" standalone="no"?>
<!-- Uploaded to: SVG Repo, www.svgrepo.com, Generator: SVG Repo Mixer Tools -->

<svg
   width="800"
   height="600"
   viewBox="0 0 512 384"
   version="1.1"
   id="svg1"
   xmlns="http://www.w3.org/2000/svg"
   xmlns:svg="http://www.w3.org/2000/svg"
   xmlns:rdf="http://www.w3.org/1999/02/22-rdf-syntax-ns#"
   xmlns:cc="http://creativecommons.org/ns#"
   xmlns:dc="http://purl.org/dc/elements/1.1/">
  <defs
     id="defs1" />
  <title
     id="title1">ionicons-v5-h</title>
  <g
     id="g1"
     transform="matrix(0.7903232,0,0,0.84043413,53.677261,-23.151137)">
    <rect
       x="32"
       y="64"
       width="448"
       height="320"
       rx="32"
       ry="32"
       style="fill:none;stroke:#000000;stroke-width:32px;stroke-linejoin:round"
       id="rect1" />
    <polygon
       points="208,448 304,448 296,384 216,384 "
       style="stroke:#000000;stroke-width:32px;stroke-linecap:round;stroke-linejoin:round"
       id="polygon1" />
    <line
       x1="368"
       y1="448"
       x2="144"
       y2="448"
       style="fill:none;stroke:#000000;stroke-width:32px;stroke-linecap:round;stroke-linejoin:round"
       id="line1" />
    <path
       d="m 32,304 v 48 a 32.09,32.09 0 0 0 32,32 h 384 a 32.09,32.09 0 0 0 32,-32 v -48 z m 224,64 a 16,16 0 1 1 16,-16 16,16 0 0 1 -16,16 z"
       id="path1" />
  </g>
  <metadata
     id="metadata1">
    <rdf:RDF>
      <cc:Work
         rdf:about="">
        <dc:title>ionicons-v5-h</dc:title>
      </cc:Work>
    </rdf:RDF>
  </metadata>
</svg>
