<svg xmlns="http://www.w3.org/2000/svg" viewBox="0 0 16 16"><path d="M 7.5 1 C 6.1252104 1 5 2.1252104 5 3.5 C 5 4.7036028 5.8626983 5.7157781 7 5.9492188 L 7 8 L 5 8 L 5 11.087891 A 1.5 1.5 0 0 0 4 12.5 A 1.5 1.5 0 0 0 5.5 14 A 1.5 1.5 0 0 0 7 12.5 A 1.5 1.5 0 0 0 6 11.087891 L 6 9 L 13 9 L 13 11.087891 A 1.5 1.5 0 0 0 12 12.5 A 1.5 1.5 0 0 0 13.5 14 A 1.5 1.5 0 0 0 15 12.5 A 1.5 1.5 0 0 0 14 11.087891 L 14 8 L 8 8 L 8 5.9492188 C 9.1373017 5.7157781 10 4.7036028 10 3.5 C 10 2.1252104 8.8747896 1 7.5 1 z M 7.5 2 C 8.3343494 2 9 2.6656506 9 3.5 C 9 4.3343494 8.3343494 5 7.5 5 C 6.6656506 5 6 4.3343494 6 3.5 C 6 2.6656506 6.6656506 2 7.5 2 z M 1.5 11 A 1.5 1.5 0 0 0 0 12.5 A 1.5 1.5 0 0 0 1.5 14 A 1.5 1.5 0 0 0 3 12.5 A 1.5 1.5 0 0 0 1.5 11 z M 9.5 11 A 1.5 1.5 0 0 0 8 12.5 A 1.5 1.5 0 0 0 9.5 14 A 1.5 1.5 0 0 0 11 12.5 A 1.5 1.5 0 0 0 9.5 11 z"/></svg>