<svg xmlns="http://www.w3.org/2000/svg" xmlns:xlink="http://www.w3.org/1999/xlink" xmlns:xodm="http://www.corel.com/coreldraw/odm/2003" width="421.674" height="354.858" version="1.1" xml:space="preserve" style="shape-rendering:geometricPrecision;text-rendering:geometricPrecision;image-rendering:optimizeQuality;fill-rule:evenodd;clip-rule:evenodd" viewBox="0 0 11170.86 9400.79"><defs><style type="text/css">.fil2{fill:#000}.fil0{fill:#010101}.fil1{fill:#050505}.fil5{fill:#121213}.fil3{fill:#141516}.fil4{fill:#161617}.fil7{fill:#171718}.fil6{fill:#181818}.fil8{fill:#1e2225}</style></defs><g id="Layer_x0020_1"><metadata id="CorelCorpID_0Corel-Layer"/><g id="_105553215961920"><path d="M2677.93 3152.21l387.33 -1228.59c94.27,-282.37 311.65,-1019.63 407.3,-1234.98 203.39,-457.92 301.29,-304.96 965.06,94.51 183.26,110.29 338.81,189.46 535.46,285.68 394.17,192.86 962.24,137.33 1351.87,-44.18 281.91,-131.34 686.28,-427.4 1049.78,-594.73 344.24,-158.47 448.4,575.6 584.02,990.76 94.91,290.55 557.3,1727.15 573.08,1916.81 -544.42,0 -1047.46,26.49 -1615.78,26.49 -556.26,0 -1112.51,0 -1668.77,0 -243.48,363.6 -26.8,398.33 397.3,397.36l3046.18 26.45c43.84,188.14 181.51,486.69 185.42,662.2 -152.88,0 -200.72,27.8 -370.23,27.11l-5404.23 -0.62c-304.58,0 -547.63,-26.49 -821.14,-26.49l153.43 -561.76c37.53,-94.11 43.43,-97.83 162.22,-102.65 327.52,-13.29 626.45,-26.22 982.63,-23.93 653.4,4.2 429.21,-355.2 232.41,-392.05 -142.79,-26.75 -827.9,-12.5 -1000.93,-1.16 -185.04,-4.22 -306.03,-30.44 -132.44,-216.24zm-2595.86 1350.77c-189.68,283.26 -29.45,397.33 264.88,397.33l10674.79 0c150.98,0 170.15,-182.46 132.45,-344.35 -303,-70.59 -979.12,-51.54 -1351.82,-52.07 -171.95,-0.24 -256.14,-27.39 -449.39,-27.39 -47.02,-201.82 -132.03,-390 -191.03,-603.63 -147.21,-533.01 -406.84,-1257.23 -565.95,-1817.99 -60.72,-213.98 -115.96,-398.34 -186.36,-608.3 -86.3,-257.33 -292.5,-1003.84 -417.55,-1171.75 -620.39,-833.01 -1532.33,493.3 -2320.99,493.3 -505.19,0 -632.02,-112.67 -1077.65,-379.22 -141.57,-84.68 -261.75,-151.12 -400.36,-235.36 -445.86,-270.94 -896.08,-161.92 -1069.44,265.64 -91.87,226.58 -177.04,509.86 -256.94,749.62 -172.64,518.07 -322.38,1020.7 -496.66,1542.94 -71.15,213.21 -508.97,1660.71 -556.75,1721.25 -91.71,116.2 -502.97,69.97 -698.2,69.97 -344.34,0 -688.7,0 -1033.04,0z" class="fil0"/><path d="M7710.71 5827.26c51.47,17.91 26.13,11.93 105.95,26.49l-16.52 -79.34c38.12,-83.2 -28.9,-39.53 73.12,-83.67 71.77,-31.04 307.88,5.53 388.99,13.93 239.64,24.81 142.17,33.02 253.26,102.11 102.75,63.89 21.08,-54.86 122.15,73.59 1.67,67.68 -16.43,-26.67 41.51,115.67 123.48,303.39 -12.13,270.21 -15.03,387.61l-32.93 60.84 59.55 -34.21c46.33,43.82 75.75,28.73 62.03,254.56 -13.14,216.12 -140.79,392.75 -314.01,501.84 -90.34,56.9 -69.7,18.71 -92.51,64.6 -7.35,6.24 -17.82,5.12 -22.79,17.82l-134.75 58.08c-53.38,7.96 -130.69,3.42 -186.67,3.42 -31.33,-39.67 -98.91,67.49 -15.85,-136.37l-63.61 30.42c-49.51,3.14 31.49,53.59 -317.82,53.6 -211.88,0 -318.94,52.99 -264.92,-132.8l-0.14 -53.11c-141.38,57.55 -123.77,153.8 -291.51,82.43 -82.85,-35.25 -173.99,-113.94 -264.61,-161.89 28.32,-106.04 167.23,-256.57 264.75,-317.86 0,-229.64 1.97,-67.72 -52.85,-132.32 -39.71,97.54 -3.53,37.68 -72.3,114.89l-245.56 229.33 -238.26 -370.84c0.07,-107.91 -7.27,-32.45 -89.17,-57.31l-16.78 -75.13c61.29,-182.87 -207.14,-404.41 62.63,-572.95 82.29,-51.41 177.16,-61.94 291.79,-79.09 56.5,-8.45 115.24,-14.19 175.72,-14.01 125.31,0.37 123.54,-19.04 184.78,56.81l-34.16 63.16 60.79 -36.54c50.26,-1.24 10.14,21.04 57.3,-23.56 27.41,-25.92 30.34,-47.93 48.65,-82.52l556.25 26.48c-25.36,45.15 -14.66,32.24 -26.48,105.82zm-3893.79 26.49c3.33,-8.19 10.12,-28.21 12.08,-23.63 1.96,4.56 15,-29.08 21,-43.65 25.36,-61.62 18.74,-12.61 20.05,-65.03 89.98,-102.25 498.82,-61.1 635.58,-27.09 64,84.75 42.11,7.68 17.13,118.67l62.34 -38.46c112.36,27.33 8.23,-8.84 131.6,4.17 50.82,5.37 72.95,9.86 114.37,40.39 112.75,83.1 43.54,105.06 98.24,246.68 -31.09,110.44 -5.4,101.34 -95.72,132.45l27.09 22.99c39.21,43.82 29.59,-3.22 32.95,55.19 5.62,97.61 -26.65,78.19 -43.65,98.24l-54.99 85.18c-106.33,185.76 -194.04,321.35 -344.95,477.49 -45.14,46.7 -138.35,104.94 -156.45,161.51l-74.59 90.39c-163.54,128.99 -195.64,34.13 -197.22,33.35l-44.6 -31.02c-94.73,-60.14 75.82,-33.43 -27.8,-13.4 -84.5,2.09 30.18,-15.26 -43.39,14.95 -144.78,59.44 -71.6,25.34 -239.91,46.21 -106.09,13.16 -207.06,18.44 -352.41,18.44 8.31,-99.84 40.06,-88.49 79.46,-185.29l-79.46 -52.98c-45.46,111.66 -7.02,35.32 -74.78,114.37 -38.46,44.87 -6.61,-4.92 -36.11,39.21 -35.74,53.47 -20.37,4.64 -21.69,58.19 -119.27,172.25 -426.25,-14.71 -529.5,-54.26l-0.5 -154.86c-148.72,45.88 -69.55,55.72 -113.61,-29.27 -7.98,-90.62 -53.82,-144.42 -76.28,-262.62 -14.25,-74.98 -16.41,-75.59 2.28,-138.33 34.7,-116.53 50.52,-13.92 32.88,-128.81 13.17,-103.46 0.97,-14.32 -13.01,-47.98 -34.34,-82.66 -34.46,-26.68 -34.84,-135.18 -0.02,-6.16 5.15,-118.38 5.38,-120.16 1.39,-10.65 6.86,-38.52 15.9,-69.48l22.73 -49.23c37.63,-31.74 30.05,-44.26 65.62,-94.79 24.03,-34.14 31.62,-37.93 44.73,-60.05 32.92,-55.54 20.88,-4.06 22.23,-58.85 24.04,-34.15 -3.45,-63.04 168.6,-104.05 76.73,-18.28 148.95,-27.61 228.59,-28.27 7.76,10.85 125.74,-5.93 0.42,132.32 21.11,19.58 -75.52,58.87 52.56,0.13 115.04,-2.85 38.88,-97.56 263.41,-107.57 124.79,-5.56 271.32,1.47 398.8,1.47 18.93,30.83 28.06,-29.9 0,79.34l79.46 52.98zm1297.93 953.71l26.48 -52.98 26.49 -52.98 26.48 -52.98 134.69 -448.05c76.07,-211.15 176.34,-161.17 448.05,-161.17 158.67,236.94 71.34,162.79 188.8,473.41 50.19,132.74 158.11,339.03 234.6,454.1 192.89,290.25 420.22,476.71 741.15,636.24 285.36,141.85 863.02,77.53 1273.47,79.62 345.94,1.76 666.57,-260.02 836.35,-541.05 166.36,-275.39 130.1,-930.08 70.09,-1188.72 -85.39,-367.97 -378.02,-560.28 -751.61,-625.79 -398.57,-69.89 -1457.26,-94.53 -1919.85,7.79 -216.67,47.93 -318.16,110.15 -453.12,235.93 -110.44,102.93 -80.67,74.55 -225.77,53.24 -361.08,-53.06 -411.17,87.19 -581.83,-56.42 -68.5,-57.64 -106.43,-106.54 -190.63,-153.87 -369.61,-207.82 -2075.32,-186.75 -2453.81,-10.78 -397.22,184.67 -471.13,497.53 -503.44,873.95 -44.24,515.37 -13.55,743.08 246.77,1052.65 410.36,488 1059.82,375.7 1634.61,351.93 272.04,-11.24 545.14,-153.47 721.88,-311.16 190.48,-169.93 253.5,-254.46 390.27,-457.36 15.98,-23.71 10.68,-17.67 32.42,-47.05 22.47,-30.35 28.27,-36.44 47.45,-58.5z" class="fil0"/><path d="M4982.41 8820.58c0,156.7 133.28,-11.89 185.42,211.91 -405.48,271.52 -891.06,-670.88 -132.45,-847.63l237.14 -1299.19c64.87,-264.53 182.54,-263.61 372.1,-263.61 314.96,0 343.38,651.41 412.64,1017.72l81.33 448.44c32.91,159.28 -41.43,53.23 177.4,166.94 455.9,236.92 172.51,907.85 -274.05,803.82 0,-290.34 138.6,-47.1 158.93,-291.38 -372.59,-209.32 -279.04,476.79 -609.23,476.79 -147.18,0 -232.18,-119.58 -265.58,-237.7 -98.37,-347.93 -343.65,-312.3 -343.65,-186.11zm211.91 -2172.04l-26.48 52.98 -26.49 52.98 -26.48 52.98 -191.51 1053.45c-47.13,251.14 -12.86,140.87 -185.71,291.08 -32.02,27.83 -49.01,47.56 -80.27,78.66 -335.5,333.87 -180.36,842.47 244.02,962.34 103.38,29.2 178.86,8.55 287.24,30.63 105.83,21.55 229.95,200.77 449.83,174.56 246.03,-29.32 171.74,-169.14 455.83,-180.91 403.53,-16.71 642.25,-283.96 608.24,-631.16 -16.14,-164.84 -107.92,-332.84 -225.01,-412.98 -231.99,-158.78 -179.85,-62.89 -238.96,-396.76 -113.52,-641.17 -85.44,-1250.6 -597.34,-1311.81 -271.7,-32.48 -313.42,94.61 -446.88,183.98z" class="fil1"/><path d="M7896.13 6992.89c60.98,-91.06 41.02,-69.99 79.47,-52.98 13.92,39.35 51.92,-15.96 -9.2,26.39 -63.96,44.33 -28.31,10.29 -70.27,26.58zm-529.77 -52.98c0.41,-0.18 4.87,-58.44 79.47,52.98 -51.29,-11.96 -0.52,18.11 -58.7,-18.9 -108.83,-69.24 8.66,4.24 -20.77,-34.07zm344.35 105.95l0 -211.91c62.36,14.53 78.23,24.69 158.93,26.48 -52.3,98.82 -66.39,123.46 -158.93,185.42zm-238.4 -185.42c80.7,-1.79 96.57,-11.96 158.93,-26.48l0 211.91c-92.54,-61.97 -106.63,-86.6 -158.93,-185.42zm423.81 -79.46c-77.93,-18.16 -80.84,-26.49 -185.41,-26.49l0 -238.39 211.91 0 0 132.44c0,33.83 -17.17,111.58 -26.49,132.45zm-476.79 -132.45l0 -132.44 211.91 0 0 238.39c-104.57,0 -107.49,8.33 -185.41,26.49 -13.85,-59.41 -26.49,-60.91 -26.49,-132.45zm662.21 238.4c-63.02,-42.2 -27.59,-32.06 -105.95,-52.98 28.16,-120.87 52.98,-162.8 52.98,-317.86l211.91 0c-4.31,193.21 -83.23,257.78 -158.93,370.84zm-980.07 -370.84l211.91 0c0,155.06 24.82,196.99 52.98,317.86 -78.36,20.92 -42.93,10.77 -105.95,52.98 -76.77,-114.65 -153.54,-175.71 -158.93,-370.84zm609.24 -317.86c104.57,0 107.49,-8.34 185.41,-26.49 13.84,59.4 26.49,60.9 26.49,132.45l0 132.44 -211.91 0 0 -238.39zm-291.38 105.95c0,-71.55 12.65,-73.04 26.49,-132.45 77.93,18.15 80.84,26.49 185.41,26.49l0 238.39 -211.91 0 0 -132.44zm556.26 -185.42c78.36,-20.93 42.93,-10.78 105.95,-52.98 75.7,113.05 154.62,177.61 158.93,370.84l-211.91 0c0,-103.69 -22.72,-250.13 -52.98,-317.86zm-662.21 317.86l-211.91 0c4.31,-193.22 83.23,-257.78 158.93,-370.84 63.02,42.19 27.59,32.05 105.95,52.98 -28.16,120.86 -52.98,162.79 -52.98,317.86zm397.33 -317.86l0 -211.91c92.54,61.97 106.63,86.59 158.93,185.42 -70.72,1.57 -105.91,5.91 -158.93,26.48zm-79.47 -211.91l0 211.91c-62.36,-14.53 -78.23,-24.69 -158.93,-26.48 52.3,-98.83 66.39,-123.46 158.93,-185.42zm264.88 52.98c51.29,11.95 0.52,-18.12 58.7,18.89 60.82,38.7 34.79,-5.59 20.77,34.08 -0.41,0.18 -4.87,58.43 -79.47,-52.98zm-450.3 0c-93.22,139.21 -196.78,45.85 0,0zm-450.31 582.87c54.82,64.6 52.85,-97.32 52.85,132.32 -8.6,139.82 161.39,298.45 291.37,397.32l0.14 53.11c52.26,-1.29 39.28,-24.34 136.67,-6.06 92.44,17.35 75.13,31.02 181.72,33.91 160.79,4.38 228.24,-54.04 343.81,-80.96l26.49 -46.6c215.57,-129.63 141.75,-75.11 238.52,-297.74l52.85 -26.49c2.73,-122.57 40.08,-142.14 24.61,-287.65 -12.24,-115.1 -58.48,-177.9 -77.59,-286.67l-6.92 -34.9c-86.58,-39.21 -37.72,-8.21 -107.36,-72.57 -38.54,-35.61 -50.72,-58.71 -92.92,-91.15 -71.01,-54.57 -149.1,-106.31 -243.11,-74.8 -79.82,-14.57 -54.48,-8.58 -105.95,-26.49 -209.41,-80.88 -422.88,88.75 -524.05,191.27 -130.69,132.44 -191.14,268.95 -191.14,524.18z" class="fil2"/><path d="M3869.9 6992.89c60.98,-91.06 41.02,-69.99 79.47,-52.98 11.03,31.19 92.96,-13.96 -79.47,52.98zm-529.77 -52.98c0.41,-0.18 4.87,-58.44 79.47,52.98 -51.29,-11.96 -0.52,18.11 -58.7,-18.9 -108.83,-69.24 8.67,4.24 -20.77,-34.07zm344.35 105.95l0 -211.91c62.36,14.53 78.23,24.69 158.93,26.48 -52.3,98.82 -66.39,123.46 -158.93,185.42zm-238.4 -185.42c80.7,-1.79 96.57,-11.96 158.93,-26.48l0 211.91c-92.54,-61.97 -106.63,-86.6 -158.93,-185.42zm423.81 -79.46c-77.93,-18.16 -80.84,-26.49 -185.41,-26.49l0 -238.39 211.91 0 0 132.44c0,33.83 -17.17,111.58 -26.49,132.45zm-476.79 -132.45l0 -132.44 211.91 0 0 238.39c-104.57,0 -107.49,8.33 -185.41,26.49 -13.84,-59.41 -26.49,-60.91 -26.49,-132.45zm662.21 238.4c-63.02,-42.2 -27.59,-32.06 -105.95,-52.98 28.16,-120.87 52.98,-162.8 52.98,-317.86l211.91 0c-4.31,193.21 -83.23,257.78 -158.93,370.84zm-980.07 -370.84l211.91 0c0,155.06 24.82,196.99 52.98,317.86 -78.36,20.92 -42.93,10.77 -105.95,52.98 -76.77,-114.65 -153.54,-175.71 -158.93,-370.84zm609.24 -317.86c104.57,0 107.49,-8.34 185.41,-26.49 13.85,59.4 26.49,60.9 26.49,132.45l0 132.44 -211.91 0 0 -238.39zm-291.38 105.95c0,-71.55 12.66,-73.04 26.49,-132.45 77.93,18.15 80.84,26.49 185.41,26.49l0 238.39 -211.91 0 0 -132.44zm556.26 -185.42c78.36,-20.93 42.93,-10.78 105.95,-52.98 75.7,113.05 154.62,177.61 158.93,370.84l-211.91 0c0,-103.69 -22.72,-250.13 -52.98,-317.86zm-662.21 317.86l-211.91 0c4.31,-193.22 83.23,-257.78 158.93,-370.84 63.02,42.19 27.59,32.05 105.95,52.98 -28.16,120.86 -52.98,162.79 -52.98,317.86zm397.33 -317.86l0 -211.91c92.54,61.97 106.63,86.59 158.93,185.42 -70.72,1.57 -105.91,5.91 -158.93,26.48zm-79.47 -211.91l0 211.91c-62.36,-14.53 -78.23,-24.69 -158.93,-26.48 52.3,-98.83 66.39,-123.46 158.93,-185.42zm264.88 52.98c51.29,11.95 0.52,-18.12 58.7,18.89 60.82,38.7 34.79,-5.59 20.77,34.08 -0.41,0.18 -4.87,58.43 -79.47,-52.98zm-450.3 0c-93.22,139.21 -196.78,45.85 0,0zm-426.75 662.21c-5.55,68 -15.52,42.05 15.88,79.46 47.41,99.26 59.01,133.76 125.28,206.29 7.04,7.71 77.76,80.94 78.86,81.82 103.45,82.19 7.86,50.54 100.78,29.88l79.46 52.98c65.68,69.06 25.22,47.84 142.48,71.96 61.26,12.6 132.71,11.53 195.45,2.21 126,-18.71 172.3,-56.69 271.44,-100.79 39.56,-91.84 -6.34,-12.68 52.19,-80.7 12.31,-14.31 36.41,-32.27 58.12,-51.45 38.52,-34.01 51.08,-51.96 82.7,-79.75l45.25 -26.49 26.49 -52.98c69.32,-297.54 83.27,-320.28 -26.49,-597.82l-26.86 -64.38c-75.05,-50.73 -97.07,-94.83 -165.58,-151.94 -32.05,-26.71 -60.56,-45.59 -97.42,-63.43 -91.98,-44.51 -48.37,-43.98 -133.95,-23.16l-79.46 -52.98c-97.13,-8.91 -213.51,1.77 -325.99,44.98 -300.2,115.31 -533.22,501 -418.62,776.3z" class="fil2"/><path d="M4267.23 6754.49l-26.49 52.98c0,42.75 8.19,26.49 -45.25,26.49 -31.62,27.79 -44.19,45.74 -82.7,79.75 -21.72,19.18 -45.82,37.15 -58.12,51.45 -58.52,68.03 -12.63,-11.13 -52.19,80.7 -1.59,64.49 -9.98,26.37 -53.11,132.31 103.62,-20.04 -66.92,-46.74 27.8,13.4l44.6 31.02c1.58,0.78 33.68,95.64 197.22,-33.35l74.59 -90.39c-143.15,25.66 -77.24,48.12 -211.78,79.46 38.48,-144.09 619.71,-705.05 715.19,-847.63 107.05,0 11.13,-8.57 52.98,43.99 17,-20.06 49.27,-0.63 43.65,-98.24 -3.36,-58.41 6.26,-11.37 -32.95,-55.19l-27.09 -22.99c90.32,-31.11 64.63,-22.01 95.72,-132.45 -140.98,57.39 -68.49,34.94 -179.53,164.81 -117.48,137.39 -363.22,443.98 -482.55,523.89z" class="fil3"/><path d="M4346.69 4132.14c0,283.27 397.33,286.9 397.33,-26.48 0,-163.15 -397.33,-268.41 -397.33,26.48z" class="fil0"/><path d="M4346.69 3549.4c0,283.27 397.33,286.9 397.33,-26.48 0,-163.15 -397.33,-268.41 -397.33,26.48z" class="fil0"/><path d="M4346.69 2410.4c0,283.26 397.33,286.89 397.33,-26.49 0,-163.15 -397.33,-268.4 -397.33,26.49z" class="fil0"/><path d="M4346.69 2993.15c0,283.26 397.33,286.89 397.33,-26.49 0,-163.15 -397.33,-268.4 -397.33,26.49z" class="fil0"/><path d="M2625.08 5827.4c179.92,-28.4 150.11,-79.47 397.19,-79.47 -38.84,58 -60.66,98.21 -112.33,152.54 -26.8,28.17 -39.82,36.55 -65.5,66.94l-351.93 389.75 0 -316.08 -22.73 49.23c-9.04,30.96 -14.51,58.82 -15.9,69.48 -0.23,1.78 -5.4,114 -5.38,120.16 0.38,108.5 0.5,52.52 34.84,135.18 13.98,33.66 26.17,-55.48 13.01,47.98 108.98,-46.96 534.8,-527.26 578.9,-635.59 -128.07,58.74 -31.45,19.45 -52.56,-0.13 125.32,-138.24 7.34,-121.46 -0.42,-132.32 -79.64,0.65 -151.86,9.98 -228.59,28.27 -172.06,41.01 -144.56,69.9 -168.6,104.05z" class="fil4"/><path d="M8319.94 6701.51c0,45.52 8.18,26.49 -52.85,26.49 -96.77,222.63 -22.95,168.11 -238.52,297.74 0,54.78 16.77,46.6 -26.49,46.6 -32.92,49.17 -8.93,5.17 -33.97,46.19 -43.1,70.6 -9.31,-2.74 -45.49,86.12l63.61 -30.42c-83.06,203.87 -15.48,96.7 15.85,136.37 55.98,0 133.3,4.54 186.67,-3.42l134.75 -58.08c4.97,-12.71 15.44,-11.58 22.79,-17.82 -152.32,0 -182.11,26.49 -344.21,26.49 55.42,-104.73 453.72,-545.82 590.54,-706.23 23.79,-27.89 34.42,-32.7 51.36,-56.17 52.91,-73.31 11.03,2.72 46.79,-85.1l-59.55 34.21 32.93 -60.84c-89.11,36.28 -41.45,2.17 -115.55,71.74 -34.77,32.65 -46.61,55.81 -69.79,87.19 -49.85,67.5 -88.13,111.56 -158.88,158.93z" class="fil5"/><path d="M6333.45 6383.65l16.78 75.13c81.9,24.86 89.24,-50.59 89.17,57.31 147.39,-60.01 50.05,-33.81 178.32,-165.95 91.51,-94.27 415.58,-446.73 457.27,-549.11l-60.79 36.54 34.16 -63.16c-148.78,60.57 -320.03,325.14 -456.34,470.61 -61.02,65.12 -104.21,92.62 -152.75,165.12 -44.41,-11.78 -61.02,-12.53 -105.82,-26.49z" class="fil5"/><path d="M2537.46 6992.89c44.07,84.99 -35.1,75.14 113.61,29.27l0.5 154.86c103.25,39.55 410.23,226.51 529.5,54.26 -271.8,42.89 -327.63,-14.92 -503.14,-132.44 44.84,-66.96 104.66,-145.8 165.19,-205.65 34.43,-34.04 62.14,-56.37 92.96,-93.16 39.86,-47.57 33.3,-54.57 72.66,-98.52 -31.4,-37.41 -21.43,-11.46 -15.88,-79.46l-374.21 364.54 -81.18 6.3z" class="fil6"/><path d="M7800.15 5774.42c243.04,-43.6 75.15,-54.63 492.31,-25.48 102.87,7.19 57.93,17 159.93,25.48 -23.45,87.83 3.47,17.16 -44.46,87.99 -88.45,130.71 -138,120.88 -147.89,229.88l6.92 34.9c82.67,-18.81 245.22,-204.38 291.38,-273.3 19.98,16.69 64.46,21.49 79.33,26.49 -101.08,-128.45 -19.4,-9.7 -122.15,-73.59 -111.09,-69.09 -13.62,-77.3 -253.26,-102.11 -81.11,-8.4 -317.22,-44.97 -388.99,-13.93 -102.02,44.14 -35,0.46 -73.12,83.67z" class="fil7"/><path d="M3870.04 5721.44c202.52,-31.96 436.13,-19.98 635.58,26.49 -44.5,66.45 -85.34,98.04 -143.26,174.59 -33.15,43.8 -40.39,46.98 -74.74,84.17 -19.62,21.25 -16.5,18.36 -37.16,42.37l-36.59 43.22 26.86 64.38c65.08,-19.56 133.82,-97.73 178.31,-150.96 41.44,-49.55 34.81,-53.5 80.06,-104.01l85.98 -127.14 -62.34 38.46c24.98,-110.99 46.87,-33.92 -17.13,-118.67 -136.76,-34 -545.6,-75.15 -635.58,27.09z" class="fil3"/><path d="M2810.37 3368.45c-51.75,-38.37 -96.52,-27.49 -158.93,-57.44 1.75,-78.69 8.41,-99.58 26.49,-158.8 -173.59,185.8 -52.61,212.03 132.44,216.24z" class="fil8"/></g></g></svg>